<svg width="42" height="42" viewBox="0 0 42 42" fill="none" xmlns="http://www.w3.org/2000/svg">
<path d="M27.51 16.9575C31.115 20.5625 31.115 26.39 27.51 29.9775C23.905 33.5825 18.0775 33.5825 14.49 29.9775C10.885 26.3725 10.885 20.545 14.49 16.9575C18.0775 13.3525 23.9225 13.3525 27.51 16.9575Z" stroke="#292D32" stroke-width="1.5093" stroke-linecap="round" stroke-linejoin="round"/>
<path d="M21 23.4675L18.2175 26.25" stroke="#292D32" stroke-width="1.5093" stroke-linecap="round" stroke-linejoin="round"/>
<path d="M33.3725 11.0951C33.635 11.3576 33.635 11.7951 33.3725 12.0751C33.11 12.3376 32.6725 12.3376 32.3925 12.0751C32.1125 11.8126 32.13 11.3751 32.3925 11.0951C32.655 10.8151 33.11 10.8151 33.3725 11.0951Z" stroke="#292D32" stroke-miterlimit="10"/>
<path d="M33.3725 11.0951C33.635 11.3576 33.635 11.7951 33.3725 12.0751C33.11 12.3376 32.6725 12.3376 32.3925 12.0751C32.1125 11.8126 32.13 11.3751 32.3925 11.0951C32.655 10.8151 33.11 10.8151 33.3725 11.0951Z" stroke="#292D32" stroke-width="1.5" stroke-linecap="round" stroke-linejoin="round"/>
<path d="M9.60753 34.86C9.87003 35.1225 9.87003 35.56 9.60753 35.84C9.34503 36.12 8.90754 36.1025 8.62754 35.84C8.36504 35.5775 8.36504 35.14 8.62754 34.86C8.89004 34.58 9.34503 34.58 9.60753 34.86Z" stroke="#292D32" stroke-miterlimit="10"/>
<path d="M9.60753 34.86C9.87003 35.1225 9.87003 35.56 9.60753 35.84C9.34503 36.12 8.90754 36.1025 8.62754 35.84C8.36504 35.5775 8.36504 35.14 8.62754 34.86C8.89004 34.58 9.34503 34.58 9.60753 34.86Z" stroke="#292D32" stroke-width="1.5" stroke-linecap="round" stroke-linejoin="round"/>
<path d="M38.2901 22.9775C38.5526 23.24 38.5526 23.6775 38.2901 23.9575C38.0276 24.22 37.5901 24.22 37.3101 23.9575C37.0301 23.695 37.0476 23.2575 37.3101 22.9775C37.5726 22.6975 38.0276 22.6975 38.2901 22.9775Z" stroke="#292D32" stroke-miterlimit="10"/>
<path d="M38.2901 22.9775C38.5526 23.24 38.5526 23.6775 38.2901 23.9575C38.0276 24.22 37.5901 24.22 37.3101 23.9575C37.0301 23.695 37.0476 23.2575 37.3101 22.9775C37.5726 22.6975 38.0276 22.6975 38.2901 22.9775Z" stroke="#292D32" stroke-width="1.5" stroke-linecap="round" stroke-linejoin="round"/>
<path d="M4.67253 22.9775C4.93503 23.24 4.93503 23.6775 4.67253 23.9575C4.41003 24.2375 3.97248 24.22 3.69248 23.9575C3.42998 23.695 3.42998 23.2575 3.69248 22.9775C3.97248 22.6975 4.41003 22.6975 4.67253 22.9775Z" stroke="#292D32" stroke-miterlimit="10"/>
<path d="M4.67253 22.9775C4.93503 23.24 4.93503 23.6775 4.67253 23.9575C4.41003 24.2375 3.97248 24.22 3.69248 23.9575C3.42998 23.695 3.42998 23.2575 3.69248 22.9775C3.97248 22.6975 4.41003 22.6975 4.67253 22.9775Z" stroke="#292D32" stroke-width="1.5" stroke-linecap="round" stroke-linejoin="round"/>
<path d="M33.3725 34.86C33.635 35.1225 33.635 35.56 33.3725 35.84C33.11 36.1025 32.6725 36.1025 32.3925 35.84C32.1125 35.5775 32.13 35.14 32.3925 34.86C32.6725 34.58 33.11 34.58 33.3725 34.86Z" stroke="#292D32" stroke-miterlimit="10"/>
<path d="M33.3725 34.86C33.635 35.1225 33.635 35.56 33.3725 35.84C33.11 36.1025 32.6725 36.1025 32.3925 35.84C32.1125 35.5775 32.13 35.14 32.3925 34.86C32.6725 34.58 33.11 34.58 33.3725 34.86Z" stroke="#292D32" stroke-width="1.5" stroke-linecap="round" stroke-linejoin="round"/>
<path d="M9.60753 11.0951C9.87003 11.3576 9.87003 11.7951 9.60753 12.0751C9.34503 12.3551 8.90754 12.3376 8.62754 12.0751C8.36504 11.8126 8.36504 11.3751 8.62754 11.0951C8.89004 10.8151 9.34503 10.8151 9.60753 11.0951Z" stroke="#292D32" stroke-miterlimit="10"/>
<path d="M9.60753 11.0951C9.87003 11.3576 9.87003 11.7951 9.60753 12.0751C9.34503 12.3551 8.90754 12.3376 8.62754 12.0751C8.36504 11.8126 8.36504 11.3751 8.62754 11.0951C8.89004 10.8151 9.34503 10.8151 9.60753 11.0951Z" stroke="#292D32" stroke-width="1.5" stroke-linecap="round" stroke-linejoin="round"/>
<path d="M21.49 6.16005C21.7525 6.42255 21.7525 6.86004 21.49 7.14004C21.2275 7.42004 20.79 7.40254 20.51 7.14004C20.23 6.87754 20.2475 6.44005 20.51 6.16005C20.7725 5.88005 21.2275 5.89755 21.49 6.16005Z" stroke="#292D32" stroke-miterlimit="10"/>
<path d="M21.49 6.16005C21.7525 6.42255 21.7525 6.86004 21.49 7.14004C21.2275 7.42004 20.79 7.40254 20.51 7.14004C20.23 6.87754 20.2475 6.44005 20.51 6.16005C20.7725 5.88005 21.2275 5.89755 21.49 6.16005Z" stroke="#292D32" stroke-width="1.5" stroke-linecap="round" stroke-linejoin="round"/>
</svg>
