<svg width="32" height="32" viewBox="0 0 32 32" fill="none" xmlns="http://www.w3.org/2000/svg">
<path d="M16 11.3333V4" stroke="#002021" stroke-width="1.5" stroke-linecap="round" stroke-linejoin="round"/>
<path d="M16 28V20.6667" stroke="#002021" stroke-width="1.5" stroke-linecap="round" stroke-linejoin="round"/>
<path d="M13.3333 4H18.6666" stroke="#002021" stroke-width="1.5" stroke-linecap="round" stroke-linejoin="round"/>
<path d="M13.3333 28H18.6666" stroke="#002021" stroke-width="1.5" stroke-linecap="round" stroke-linejoin="round"/>
<path d="M11.96 13.6667L5.61334 10" stroke="#002021" stroke-width="1.5" stroke-linecap="round" stroke-linejoin="round"/>
<path d="M26.3866 22L20.04 18.3333" stroke="#002021" stroke-width="1.5" stroke-linecap="round" stroke-linejoin="round"/>
<path d="M4.28003 12.3067L6.9467 7.69334" stroke="#002021" stroke-width="1.5" stroke-linecap="round" stroke-linejoin="round"/>
<path d="M25.0533 24.3067L27.72 19.6933" stroke="#002021" stroke-width="1.5" stroke-linecap="round" stroke-linejoin="round"/>
<path d="M20.6666 16C20.6666 16.8533 20.44 17.64 20.04 18.3333C19.2266 19.7333 17.72 20.6667 16 20.6667C14.28 20.6667 12.7733 19.7333 11.96 18.3333C11.56 17.64 11.3333 16.8533 11.3333 16C11.3333 15.1467 11.56 14.36 11.96 13.6667C12.7733 12.2667 14.28 11.3333 16 11.3333C17.72 11.3333 19.2266 12.2667 20.04 13.6667C20.44 14.36 20.6666 15.1467 20.6666 16Z" stroke="#002021" stroke-width="1.5" stroke-linecap="round" stroke-linejoin="round"/>
<path d="M26.3866 10L20.04 13.6667" stroke="#002021" stroke-width="1.5" stroke-linecap="round" stroke-linejoin="round"/>
<path d="M11.96 18.3333L5.61334 22" stroke="#002021" stroke-width="1.5" stroke-linecap="round" stroke-linejoin="round"/>
<path d="M27.72 12.3067L25.0533 7.69334" stroke="#002021" stroke-width="1.5" stroke-linecap="round" stroke-linejoin="round"/>
<path d="M6.9467 24.3067L4.28003 19.6933" stroke="#002021" stroke-width="1.5" stroke-linecap="round" stroke-linejoin="round"/>
</svg>
