<svg width="233" height="233" viewBox="0 0 233 233" fill="none" xmlns="http://www.w3.org/2000/svg">
<g id="sun">
<path id="Vector" d="M116.5 82.5208V29.125" stroke="#386668" stroke-width="4" stroke-linecap="round" stroke-linejoin="round"/>
<path id="Vector_2" d="M116.5 203.875V150.479" stroke="#386668" stroke-width="4" stroke-linecap="round" stroke-linejoin="round"/>
<path id="Vector_3" d="M97.0836 29.125H135.917" stroke="#386668" stroke-width="4" stroke-linecap="round" stroke-linejoin="round"/>
<path id="Vector_4" d="M97.0836 203.875H135.917" stroke="#386668" stroke-width="4" stroke-linecap="round" stroke-linejoin="round"/>
<path id="Vector_5" d="M87.0834 99.5104L40.8717 72.8125" stroke="#386668" stroke-width="4" stroke-linecap="round" stroke-linejoin="round"/>
<path id="Vector_6" d="M192.128 160.187L145.917 133.49" stroke="#386668" stroke-width="4" stroke-linecap="round" stroke-linejoin="round"/>
<path id="Vector_7" d="M31.1639 89.6079L50.5806 56.0171" stroke="#386668" stroke-width="4" stroke-linecap="round" stroke-linejoin="round"/>
<path id="Vector_8" d="M182.42 176.983L201.836 143.392" stroke="#386668" stroke-width="4" stroke-linecap="round" stroke-linejoin="round"/>
<path id="Vector_9" d="M150.479 116.5C150.479 122.713 148.829 128.441 145.917 133.49C139.994 143.683 129.024 150.479 116.5 150.479C103.977 150.479 93.0061 143.683 87.084 133.49C84.1715 128.441 82.5211 122.713 82.5211 116.5C82.5211 110.287 84.1715 104.559 87.084 99.5104C93.0061 89.3167 103.977 82.5209 116.5 82.5209C129.024 82.5209 139.994 89.3167 145.917 99.5104C148.829 104.559 150.479 110.287 150.479 116.5Z" stroke="#386668" stroke-width="4" stroke-linecap="round" stroke-linejoin="round"/>
<path id="Vector_10" d="M192.128 72.8125L145.917 99.5104" stroke="#386668" stroke-width="4" stroke-linecap="round" stroke-linejoin="round"/>
<path id="Vector_11" d="M87.0834 133.49L40.8717 160.187" stroke="#386668" stroke-width="4" stroke-linecap="round" stroke-linejoin="round"/>
<path id="Vector_12" d="M201.836 89.6079L182.42 56.0171" stroke="#386668" stroke-width="4" stroke-linecap="round" stroke-linejoin="round"/>
<path id="Vector_13" d="M50.5806 176.983L31.1639 143.392" stroke="#386668" stroke-width="4" stroke-linecap="round" stroke-linejoin="round"/>
</g>
</svg>
